<?xml version="1.0" encoding="UTF-8" standalone="no"?>
<svg viewBox="0 0 664 584" version="1.1" xmlns="http://www.w3.org/2000/svg" xmlns:xlink="http://www.w3.org/1999/xlink" xmlns:sketch="http://www.bohemiancoding.com/sketch/ns">
    <!-- Generator: Sketch 3.3.2 (12043) - http://www.bohemiancoding.com/sketch -->
    <title>social-icons</title>
    <desc>Created with Sketch.</desc>
    <defs>
      <g id="facebook" sketch:type="MSLayerGroup">
          <path d="M23.3147057,35 L18.4372418,35 L18.4372418,23.4985483 L16,23.4985483 L16,19.535534 L18.4372418,19.535534 L18.4372418,17.1562737 C18.4372418,13.9234411 19.8127074,12 23.7230238,12 L26.9776468,12 L26.9776468,15.964466 L24.9435074,15.964466 C23.4212558,15.964466 23.3206665,16.5182719 23.3206665,17.5518493 L23.3139606,19.535534 L27,19.535534 L26.5685836,23.4985483 L23.3139606,23.4985483 L23.3139606,35 L23.3147057,35 Z" id="Shape" sketch:type="MSShapeGroup"></path>
      </g>
      <g id="twitter" sketch:type="MSLayerGroup">
          <path d="M30.526149,16.8457316 C31.4160944,16.2841254 32.0989611,15.3936155 32.41944,14.3328037 C31.5861948,14.8541095 30.6654341,15.2311137 29.6830428,15.4352159 C28.899102,14.5512061 27.7786582,14 26.5386512,14 C24.1597112,14 22.231907,16.0345226 22.231907,18.5435505 C22.231907,18.8997544 22.2676528,19.2468583 22.3416094,19.578362 C18.762106,19.3885599 15.5881317,17.5815398 13.4618771,14.8307092 C13.0908611,15.5041167 12.8788519,16.2841254 12.8788519,17.1161346 C12.8788519,18.6917521 13.6393731,20.0827676 14.7955626,20.8991767 C14.0892763,20.8757764 13.4248987,20.6690741 12.8431062,20.3310703 L12.8431062,20.386971 C12.8431062,22.5891954 14.3271703,24.4261158 16.3005811,24.8421205 C15.9381933,24.9487217 15.558549,25.0020222 15.1641134,25.0020222 C14.8867758,25.0020222 14.6156013,24.9747219 14.3542877,24.9214213 C14.9015672,26.7258414 16.4928685,28.041456 18.3787639,28.0765564 C16.9033281,29.29597 15.0457827,30.021378 13.0279979,30.021378 C12.6804015,30.021378 12.3365029,30.0018778 12,29.9589773 C13.9068498,31.2472916 16.1711569,32 18.6043317,32 C26.5300229,32 30.8614193,25.0761231 30.8614193,19.0713563 C30.8614193,18.8737542 30.858954,18.677452 30.8503258,18.4837498 C31.6921993,17.8428427 32.4243705,17.0420338 33,16.1307237 C32.2271527,16.4921277 31.3963726,16.7365304 30.526149,16.8457316 Z" id="Shape" sketch:type="MSShapeGroup"></path>
      </g>

      <g id="instagram"><g transform="translate(10 10)"><mask id="b" fill="#fff"><use xlink:href="#a"/></mask><path d="M11.996.008C8.738.008 8.33.02 7.05.08 5.773.138 4.9.34 4.138.637c-.79.307-1.458.717-2.125 1.384C1.347 2.69.936 3.358.63 4.147.333 4.91.13 5.78.072 7.058.014 8.338 0 8.746 0 12.004s.014 3.666.072 4.946c.058 1.277.26 2.15.558 2.912.306.79.717 1.458 1.383 2.125.667.666 1.336 1.077 2.125 1.383.763.297 1.635.5 2.912.558 1.28.058 1.688.072 4.946.072s3.667-.014 4.946-.072c1.277-.058 2.15-.26 2.912-.558.79-.306 1.458-.717 2.125-1.383.666-.667 1.076-1.336 1.383-2.125.296-.763.5-1.635.557-2.912.06-1.28.072-1.688.072-4.946s-.013-3.667-.072-4.946c-.058-1.277-.26-2.15-.557-2.912-.307-.79-.717-1.458-1.384-2.125-.668-.666-1.337-1.076-2.126-1.383C19.09.34 18.22.137 16.942.08c-1.28-.06-1.688-.072-4.946-.072zm0 2.16c3.203 0 3.583.013 4.848.07 1.17.054 1.805.25 2.227.414.56.218.96.478 1.38.897.42.42.68.82.898 1.38.164.42.36 1.057.413 2.226.06 1.265.07 1.645.07 4.848s-.01 3.582-.07 4.847c-.052 1.17-.248 1.806-.412 2.23-.218.56-.478.958-.897 1.378-.42.42-.82.68-1.38.898-.42.164-1.057.36-2.226.413-1.265.056-1.644.07-4.848.07-3.203 0-3.582-.014-4.847-.07-1.17-.055-1.806-.25-2.23-.414-.56-.218-.958-.478-1.378-.898-.42-.42-.68-.82-.898-1.38-.164-.422-.36-1.057-.413-2.227-.056-1.264-.07-1.643-.07-4.846 0-3.203.014-3.583.07-4.848.055-1.17.25-1.805.414-2.227.218-.56.478-.96.898-1.38.42-.42.82-.68 1.38-.898.422-.164 1.057-.36 2.227-.413 1.264-.06 1.643-.07 4.846-.07z" mask="url(#b)"/></g><path d="M21.996 26.003c-2.208 0-4-1.79-4-4 0-2.208 1.792-3.998 4-3.998 2.21 0 4 1.79 4 4 0 2.207-1.79 3.998-4 3.998zm0-10.16c-3.402 0-6.16 2.76-6.16 6.16 0 3.403 2.758 6.16 6.16 6.16s6.16-2.757 6.16-6.16c0-3.4-2.758-6.16-6.16-6.16zM29.84 15.6c0 .795-.645 1.44-1.44 1.44-.795 0-1.44-.645-1.44-1.44 0-.795.645-1.44 1.44-1.44.795 0 1.44.645 1.44 1.44"/></g>

      <g id="youtube-play" sketch:type="MSLayerGroup">

          <path d="M32,25.5641799 L32,18.4358201 C32,18.4358201 32,15 28.5533866,15 L15.4454374,15 C15.4454374,15 12,15 12,18.4358201 L12,25.5641799 C12,25.5641799 12,29 15.4454374,29 L28.5533866,29 C28.5533866,29 32,29 32,25.5641799 M25.8828786,22.009964 L19.3353716,25.8431717 L19.3353716,18.175584 L25.8828786,22.009964" id="Shape" sketch:type="MSShapeGroup"></path>
      </g>
      <g id="tumblr" sketch:type="MSLayerGroup">

          <path d="M22.4823636,11 L22.4823636,16.2531111 L27.6178182,16.2531111 L27.6178182,19.5164444 L22.4823636,19.5164444 L22.4823636,24.8465556 C22.4823636,26.0528889 22.5485455,26.8265556 22.6809091,27.1663333 C22.8132727,27.511 23.0601818,27.7835556 23.4241818,27.9876667 C23.9014545,28.2638889 24.4487273,28.4007778 25.066,28.4007778 C26.1618182,28.4007778 27.2512727,28.0573333 28.3356364,27.3741111 L28.3356364,30.6545556 C27.4103636,31.0701111 26.5741818,31.3646667 25.8245455,31.5333333 C25.0736364,31.7032222 24.2629091,31.7863333 23.3923636,31.7863333 C22.4009091,31.7863333 21.5265455,31.6665556 20.7667273,31.427 C20.0069091,31.185 19.3578182,30.8452222 18.822,30.4003333 C18.2849091,29.9566667 17.9107273,29.4824444 17.7045455,28.9825556 C17.4970909,28.4826667 17.394,27.7578889 17.394,26.807 L17.394,19.5164444 L15,19.5164444 L15,16.5745556 C15.8527273,16.3093333 16.5794545,15.928 17.1865455,15.4342222 C17.7910909,14.9392222 18.2798182,14.344 18.6450909,13.6485556 C19.0116364,12.9555556 19.2649091,12.0718889 19.4036364,11 L22.4823636,11" id="Shape" sketch:type="MSShapeGroup"></path>
      </g>
      <g id="rss" sketch:type="MSLayerGroup">

          <path d="M13.0078198,12 L13.0078198,15.6261759 C21.4744826,15.6317615 28.3559501,22.5255174 28.36377,31 L32,31 C31.9977658,25.7629351 29.8685325,21.0174036 26.4277987,17.5744356 C22.9870649,14.1325847 18.2437676,12.0022342 13.0078198,12 L13.0078198,12 Z M13.0022342,18.4614299 L13.0022342,22.088723 C15.3694144,22.0898401 17.611477,23.0204022 19.2860419,24.6994356 C20.9639581,26.3740005 21.8889346,28.6171802 21.8934031,30.9932973 L21.8934031,31 L25.5385701,31 C25.5352187,27.5436265 24.1298801,24.4134525 21.8587723,22.1412277 C19.5876646,19.8690028 16.4574906,18.462547 13.0022342,18.4614299 L13.0022342,18.4614299 Z M13.7395343,30.2403575 L13.7395343,30.2392404 L13.7384172,30.2392404 L13.7395343,30.2403575 L13.7395343,30.2403575 Z M17.3053857,26.6867944 C17.7667568,27.1470484 18.0471543,27.7704022 18.0482714,28.4652516 C18.0471543,29.1578669 17.7667568,29.7823377 17.3076199,30.2392404 L17.3053857,30.2403575 C16.8473659,30.6972601 16.2195437,30.9776576 15.52246,30.9776576 C14.8242592,30.9776576 14.1986712,30.696143 13.7395343,30.2392404 C13.2826317,29.7823377 13,29.158984 13,28.4652516 C13,27.7704022 13.2826317,27.1459313 13.7395343,26.6867944 C14.1986712,26.2298918 14.8242592,25.9472601 15.52246,25.9472601 C16.2195437,25.9472601 16.8473659,26.2298918 17.3053857,26.6867944 L17.3053857,26.6867944 Z" id="Shape" sketch:type="MSShapeGroup"></path>
      </g>
      <g id="mail" sketch:type="MSLayerGroup">

          <path d="M13.1115479,18.9319176 C13.389863,19.1136566 14.228726,19.6535732 15.6282877,20.5512492 C17.0278493,21.4489252 18.0999726,22.1401747 18.8448082,22.6248583 C18.9266301,22.6779992 19.1005205,22.7934864 19.3664795,22.9714595 C19.6324384,23.149572 19.8534932,23.293652 20.0293425,23.4034207 C20.2053425,23.5131893 20.4181096,23.6363478 20.6677945,23.7726171 C20.9174795,23.9088864 21.1528493,24.0112628 21.3737534,24.0791882 C21.5948082,24.1475321 21.7994384,24.1814251 21.9876438,24.1814251 L22,24.1814251 L22.0123562,24.1814251 C22.2005616,24.1814251 22.4051918,24.1475321 22.6262466,24.0791882 C22.8471507,24.0112628 23.0826712,23.908747 23.3322055,23.7726171 C23.5817397,23.6362083 23.7945068,23.5131893 23.9705068,23.4034207 C24.1465068,23.293652 24.367411,23.149572 24.6333699,22.9714595 C24.8993288,22.7933469 25.0733699,22.6779992 25.1551918,22.6248583 C25.9080137,22.1400352 27.8233699,20.9090085 30.9006575,18.9316387 C31.4981233,18.545426 31.9971918,18.0794323 32.3983151,17.5339366 C32.799589,16.9887198 33,16.4167233 33,15.8182262 C33,15.3182 32.8054658,14.8901442 32.4166986,14.5340586 C32.0279315,14.177973 31.5674384,14 31.0356712,14 L12.9641781,14 C12.3340137,14 11.8491096,14.196942 11.5094658,14.5908259 C11.1698219,14.9848493 11,15.4773437 11,16.0681695 C11,16.5454609 11.2251233,17.0626427 11.6752192,17.6194362 C12.1253151,18.1762296 12.6041918,18.6137699 13.1115479,18.9319176 Z M31.7722192,20.1477413 C29.0879178,21.8294193 27.0497534,23.1363216 25.6586301,24.0681695 C25.1921096,24.3863173 24.813589,24.6345869 24.5229178,24.8124205 C24.2323973,24.990533 23.8457397,25.1722719 23.3627945,25.3579162 C22.88,25.5435605 22.4299041,25.6363129 22.0125068,25.6363129 L22,25.6363129 L21.9876438,25.6363129 C21.5702466,25.6363129 21.12,25.5435605 20.6372055,25.3579162 C20.154411,25.1722719 19.7676027,24.990533 19.4770822,24.8124205 C19.1865616,24.6345869 18.8080411,24.3863173 18.3415205,24.0681695 C17.2365479,23.3182 15.2027534,22.0112977 12.2399863,20.1477413 C11.7734658,19.8599997 11.360137,19.5302753 11,19.1591262 L11,28.1816343 C11,28.6818 11.192274,29.1097163 11.5769726,29.4658019 C11.9616712,29.822027 12.4241233,30 12.9643288,30 L31.0358219,30 C31.5758767,30 32.0383288,29.822027 32.4230274,29.4658019 C32.8078767,29.1095769 33,28.6818 33,28.1816343 L33,19.1591262 C32.648,19.522604 32.2388904,19.8523284 31.7722192,20.1477413 Z" id="Shape" sketch:type="MSShapeGroup"></path>
      </g>
      <g id="pinterest" sketch:type="MSLayerGroup">

          <path d="M10,22 C10,26.9134525 12.9562559,31.1354657 17.1853246,32.991063 C17.150047,32.1528692 17.178269,31.1467545 17.3927563,30.2351834 C17.6241769,29.261524 18.9365005,23.696143 18.9365005,23.696143 C18.9365005,23.696143 18.5526811,22.9299153 18.5526811,21.7982126 C18.5526811,20.0188147 19.5841957,18.690969 20.8668862,18.690969 C21.9590781,18.690969 22.4868297,19.5108184 22.4868297,20.4929445 C22.4868297,21.5907808 21.7869238,23.2318909 21.4270931,24.7516463 C21.1265287,26.0244591 22.0649106,27.0616181 23.3207902,27.0616181 C25.5940734,27.0616181 27.1251176,24.1434619 27.1251176,20.682032 C27.1251176,18.0531515 25.3541863,16.084666 22.1326435,16.084666 C18.4920038,16.084666 16.224365,18.7996237 16.224365,21.8306679 C16.224365,22.8762935 16.533396,23.6142992 17.0145814,24.1843838 C17.2375353,24.4468485 17.2685795,24.5526811 17.1881468,24.8546566 C17.1317027,25.0733772 16.9990593,25.6067733 16.9440263,25.8170273 C16.8635936,26.1204139 16.6180621,26.2290687 16.3428975,26.1175917 C14.6665099,25.4317968 13.8861712,23.5959548 13.8861712,21.5329257 C13.8861712,18.1237065 16.7591722,14.0357479 22.4614299,14.0357479 C27.0432738,14.0357479 30.0587959,17.3518344 30.0587959,20.9106303 C30.0587959,25.6180621 27.4412041,29.1345249 23.5832549,29.1345249 C22.2878645,29.1345249 21.0700847,28.434619 20.6523989,27.6387582 C20.6523989,27.6387582 19.9553151,30.4031044 19.8071496,30.9379116 C19.5545626,31.8621825 19.0550329,32.7864534 18.6006585,33.5075259 C19.6787394,33.8264346 20.8189087,34 22.0014111,34 C28.6279398,34 34,28.6265287 34,22 C34,15.3720602 28.6279398,10 22.0014111,10 C15.3734713,10 10,15.3720602 10,22 Z" id="Shape" sketch:type="MSShapeGroup"></path>
      </g>
      <g id="pinterest-light" sketch:type="MSLayerGroup">

          <path d="M12,20.3291817 C12,22.8981938 12.9669398,25.18331 15.0394195,26.0349978 C15.3793975,26.1744843 15.6835025,26.0399209 15.7821532,25.6608459 C15.850638,25.3991037 16.0128817,24.7377739 16.0846276,24.462083 C16.1840936,24.0879311 16.1457747,23.9566498 15.8710203,23.6300874 C15.2742245,22.9203475 14.8918511,22.0021985 14.8918511,20.700872 C14.8918511,16.9273534 17.697281,13.5484994 22.1985243,13.5484994 C26.1836859,13.5484994 28.3727528,15.9993583 28.3727528,19.2715462 C28.3727528,23.5775749 26.4788227,27.2124275 23.6685011,27.2124275 C22.1153642,27.2124275 20.953569,25.9201266 21.3261587,24.3357247 C21.7721251,22.4436321 22.6355224,20.4013864 22.6355224,19.0360603 C22.6355224,17.8135026 21.9832865,16.7944311 20.6347886,16.7944311 C19.0482247,16.7944311 17.7722881,18.4461147 17.7722881,20.6590261 C17.7722881,22.0694802 18.2459745,23.0220906 18.2459745,23.0220906 C18.2459745,23.0220906 16.621907,29.9480029 16.337369,31.1607144 C15.7707391,33.5762915 16.2525784,36.5366862 16.2933431,36.8353513 C16.3169867,37.0125811 16.5428234,37.0552475 16.6455505,36.9215046 C16.7923036,36.7286851 18.681342,34.3803898 19.325425,32.034556 C19.5064204,31.3699441 20.3681872,27.929552 20.3681872,27.929552 C20.8842689,28.9190852 22.3909339,29.7904652 23.9929885,29.7904652 C28.7640944,29.7904652 32,25.4138729 32,19.5554422 C32,15.1255168 28.2716563,11 22.6053565,11 C15.5555012,11 12,16.0871527 12,20.3291817 Z" id="Shape" sketch:type="MSShapeGroup"></path>
      </g>
      <g id="flikr" sketch:type="MSLayerGroup">

          <path d="M33,21.9993327 C33,24.7605765 30.832079,27 28.155809,27 C25.474365,27 23.3077375,24.7605765 23.3077375,21.9993327 C23.3077375,19.2394235 25.474365,17 28.155809,17 C30.832079,17 33,19.2394235 33,21.9993327 M20.690969,21.9993327 C20.690969,24.7605765 18.523048,27 15.8428975,27 C13.167921,27 11,24.7605765 11,21.9993327 C11,19.2394235 13.167921,17 15.8428975,17 C18.523048,17 20.690969,19.2394235 20.690969,21.9993327" id="Shape" sketch:type="MSShapeGroup"></path>
      </g>
      <g id="snapchat" sketch:type="MSLayerGroup">

          <path d="M21.778565,12.0039794 C21.2901823,12.0039794 20.3130178,12.072766 19.2633884,12.5347161 C18.663258,12.7986633 18.1234486,13.1555576 17.6590118,13.5955074 C17.105291,14.1197066 16.6541955,14.7660161 16.3184965,15.5167562 C15.826864,16.615977 15.9435719,18.4674727 16.037303,19.9553661 C16.0476796,20.1170429 16.0582272,20.2834382 16.0678626,20.4455699 C15.9957398,20.4785988 15.8788039,20.5134469 15.7064503,20.5134469 C15.4291337,20.5134469 15.0993642,20.4250476 14.7265491,20.2508641 C14.616854,20.1999279 14.491651,20.1741756 14.3535059,20.1741756 C14.13155,20.1741756 13.8975642,20.2393239 13.694594,20.3583076 C13.4392279,20.5078189 13.2742291,20.7191244 13.2294161,20.9533967 C13.1998828,21.1083655 13.2013081,21.4146647 13.5425374,21.7252844 C13.7302278,21.8962844 14.005948,22.0539819 14.3618299,22.1942269 C14.455219,22.2308941 14.5660544,22.2659127 14.6834464,22.3030347 C15.0908121,22.4321375 15.7073625,22.6271844 15.8681422,23.0044872 C15.9496154,23.1957821 15.9145517,23.4475069 15.7642055,23.7517595 C15.7151734,23.8642057 15.3646508,24.6558766 14.6456461,25.4908092 C14.2370831,25.9656071 13.7870709,26.3624089 13.3088367,26.6705273 C12.7251264,27.0466932 12.0935243,27.2926194 11.4317618,27.4013136 C11.1718915,27.4438362 10.9863107,27.6746976 11.0007923,27.937053 C11.0052394,28.0126613 11.0230278,28.0880423 11.0538724,28.1609788 C11.1596905,28.4073598 11.4033117,28.6155387 11.7993886,28.7991591 C12.2833812,29.0233123 13.0072321,29.2118785 13.9506443,29.3594001 C13.9983081,29.4497891 14.0477963,29.6769553 14.0820618,29.8324926 C14.1179237,29.9978077 14.1553249,30.1677845 14.2086331,30.348335 C14.2661603,30.5439504 14.4153662,30.777711 14.7986719,30.777711 C14.9439438,30.777711 15.1109951,30.74508 15.3044439,30.7076738 C15.5877469,30.6522466 15.9751577,30.5766382 16.4586942,30.5766382 C16.7267744,30.5766382 17.0046041,30.6001734 17.2842582,30.6465049 C17.8233264,30.7359843 18.2880483,31.0633174 18.8257482,31.4423826 C19.6127707,31.9971093 20.5036159,32.625 21.8647133,32.625 C21.9018294,32.625 21.9390596,32.6238062 21.9758337,32.621248 C22.0208179,32.6233514 22.0765776,32.625 22.1354162,32.625 C23.4969127,32.625 24.3875298,31.996882 25.1736971,31.44261 C25.7127653,31.0628626 26.176974,30.7359843 26.7158712,30.6465049 C26.9954113,30.6002303 27.273184,30.5766382 27.5413783,30.5766382 C28.0033064,30.5766382 28.3690518,30.6353626 28.6956285,30.6988623 C28.9087472,30.7407027 29.0743731,30.760827 29.2014575,30.760827 C29.5071101,30.7610544 29.713102,30.6076206 29.7917244,30.3391256 C29.8439493,30.1623839 29.8812366,29.9963865 29.9180106,29.8282858 C29.9500526,29.6825265 30.0012512,29.4488795 30.048915,29.3575241 C30.9929543,29.2097183 31.7165201,29.02155 32.2005698,28.7974536 C32.5957344,28.614686 32.8390706,28.4067345 32.9447747,28.1626843 C32.9764745,28.0895204 32.9950041,28.0136846 32.9991661,27.9364845 C33.0140468,27.6745839 32.8281809,27.4432677 32.5681396,27.4007451 C29.6270677,26.9174199 28.3021173,23.904227 28.2473267,23.7762044 C28.0852927,23.4469384 28.0505711,23.1954979 28.1321013,23.0038619 C28.2925389,22.6269001 28.9086902,22.4318532 29.3163409,22.3028073 C29.4343601,22.2657422 29.5455946,22.2304962 29.6382425,22.1939995 C30.0395647,22.0359609 30.3264026,21.8645061 30.5156323,21.6698003 C30.7416362,21.4376883 30.7856511,21.2152973 30.7829144,21.0697654 C30.7760157,20.7176464 30.506054,20.4047527 30.0766238,20.2515463 C29.93158,20.1917418 29.7661821,20.1601909 29.5977625,20.1601909 C29.4831072,20.1601909 29.3133192,20.175881 29.1525965,20.2506936 C28.8085164,20.4112335 28.5002983,20.4990074 28.2356959,20.511514 C28.0949851,20.504408 27.9962937,20.4739941 27.9323809,20.4449446 C27.9404199,20.3075988 27.9493141,20.1665011 27.9584933,20.0193774 L27.9623133,19.9563893 C28.0565576,18.4675296 28.1736645,16.6146126 27.681804,15.5145959 C27.3446796,14.761184 26.8919878,14.1132258 26.3360434,13.5878897 C25.8697821,13.1476556 25.3281483,12.7908182 24.7258514,12.5270416 C23.6777044,12.0685023 22.7005969,12 22.21153,12 C22.021274,12.0015918 21.7985769,12.003752 21.778565,12.0039794 Z" id="Shape" sketch:type="MSShapeGroup"></path>
      </g>
      <g id="periscope" sketch:type="MSLayerGroup">

          <path d="M31,19.1190475 C31,25.8998447 23.8030427,33.3513514 22.0000792,33.3513514 C20.1972742,33.3513514 13,25.8998447 13,19.1190475 C13,14.082705 17.0293706,10 22.0000792,10 C26.9709464,10 31,14.082705 31,19.1190475 Z M22.0000792,13.6162432 C21.5672856,13.6162432 21.146853,13.6687503 20.7432186,13.7652541 C21.475212,14.1289498 21.9804284,14.8889373 21.9804284,15.7706384 C21.9804284,17.0047952 20.9929743,18.0053197 19.7749399,18.0053197 C18.6023877,18.0053197 17.646153,17.0773738 17.5762658,15.9071247 C16.924619,16.8183711 16.5393677,17.9378794 16.5393677,19.149235 C16.5393677,22.2050817 18.9841526,24.6822268 22.0000792,24.6822268 C25.0160059,24.6822268 27.4607908,22.2050817 27.4607908,19.149235 C27.4607908,16.0933883 25.0160059,13.6162432 22.0000792,13.6162432 Z" id="Shape" sketch:type="MSShapeGroup"></path>
      </g>
      <g id="apple" sketch:type="MSLayerGroup">

          <path d="M31,26.1409957 C30.5097917,27.2856095 30.2733093,27.7951891 29.6402262,28.8091747 C28.7571122,30.2215118 27.5106529,31.9830532 25.9661273,31.9959867 C24.5952684,32.0102135 24.2430081,31.0583086 22.3807092,31.0699488 C20.5208737,31.0802956 20.1316631,32.0128002 18.7595725,31.9998667 C17.2162785,31.9856399 16.0363299,30.3961139 15.1519842,28.9824835 C12.6812358,25.0325956 12.4213515,20.394646 13.9461703,17.9282294 C15.030048,16.1770349 16.738387,15.1527025 18.3457283,15.1527025 C19.9801665,15.1527025 21.0086186,16.0942605 22.362234,16.0942605 C23.6739723,16.0942605 24.4733321,15.1501158 26.3651913,15.1501158 C27.7964025,15.1501158 29.3113679,15.9688057 30.3903188,17.3811428 C26.8529363,19.4181675 27.4268988,24.7208985 31,26.1409957 L31,26.1409957 Z M24.9315168,13.5709366 C25.6175621,12.6448987 26.139794,11.3360295 25.9513471,10 C24.8280557,10.0801876 23.5138541,10.8316234 22.7477496,11.8093953 C22.0506192,12.6953393 21.4766567,14.013262 21.6995907,15.2936775 C22.9288065,15.3337713 24.1962043,14.5642287 24.9315168,13.5709366 L24.9315168,13.5709366 Z" id="Shape" sketch:type="MSShapeGroup"></path>
      </g>
      <g id="android" sketch:type="MSLayerGroup">

          <path d="M24.8164998,12.8418391 L25.0463928,12.4822415 L25.2738005,12.127818 L25.7845357,11.3310118 C25.846669,11.2327046 25.8218157,11.1007659 25.7273731,11.03609 C25.6329306,10.9701207 25.5061788,10.9972846 25.4440456,11.0955918 L24.897273,11.9493127 L24.6661374,12.3076168 L24.4337591,12.6723884 C23.6943735,12.3735861 22.8704867,12.2067225 21.9993787,12.2067225 C21.130756,12.2067225 20.3056265,12.3735861 19.5674836,12.6723884 L19.3338626,12.3076168 L19.1052123,11.9493127 L18.5571971,11.0955918 C18.4938212,10.9972846 18.368312,10.9714142 18.2738695,11.03609 C18.179427,11.1007659 18.1545737,11.2327046 18.2167069,11.3310118 L18.7261995,12.127818 L18.9536072,12.4822415 L19.1847428,12.8418391 C17.4474974,13.6839183 16.2731792,15.2788241 16.2731792,17.1039759 L27.7268208,17.1039759 C27.7268208,15.2788241 26.5525026,13.6839183 24.8164998,12.8418391 L24.8164998,12.8418391 Z M19.5463583,15.4004147 C19.2058681,15.4004147 18.9324819,15.1145475 18.9324819,14.7614175 C18.9324819,14.4082875 19.2058681,14.1237139 19.5463583,14.1237139 C19.8843631,14.1237139 20.1589921,14.4082875 20.1589921,14.7614175 C20.1589921,15.1145475 19.8843631,15.4004147 19.5463583,15.4004147 L19.5463583,15.4004147 Z M24.4536417,15.4004147 C24.1156369,15.4004147 23.8410079,15.1145475 23.8410079,14.7614175 C23.8410079,14.4082875 24.1156369,14.1237139 24.4536417,14.1237139 C24.7941319,14.1237139 25.0675181,14.4082875 25.0675181,14.7614175 C25.0675181,15.1145475 24.7941319,15.4004147 24.4536417,15.4004147 Z M16.3614084,17.9551097 L16.2731792,17.9551097 L16.2731792,27.3227561 C16.2731792,28.0665281 16.8547463,28.6718938 17.5692786,28.6718938 L18.5037625,28.6718938 C18.4726959,28.7844298 18.4552986,28.9021398 18.4552986,29.0263174 L18.4552986,31.7232992 C18.4552986,32.4282657 19.0045564,33 19.6818088,33 C20.3590611,33 20.9108043,32.4282657 20.9108043,31.7232992 L20.9108043,29.0263174 C20.9108043,28.9021398 20.8921643,28.7844298 20.8610977,28.6718938 L23.140145,28.6718938 C23.1078357,28.7844298 23.091681,28.9021398 23.091681,29.0263174 L23.091681,31.7232992 C23.091681,32.4282657 23.6409389,33 24.3181912,33 C24.9966862,33 25.5459441,32.4282657 25.5459441,31.7232992 L25.5459441,29.0263174 C25.5459441,28.9021398 25.5273041,28.7844298 25.4962375,28.6718938 L26.4319641,28.6718938 C27.1464964,28.6718938 27.7268208,28.0665281 27.7268208,27.3227561 L27.7268208,17.9551097 L16.3614084,17.9551097 Z M14.2289955,17.9551097 C13.5505005,17.9551097 13,18.526844 13,19.2318105 L13,24.6969177 C13,25.4018842 13.5505005,25.9736184 14.2289955,25.9736184 C14.9062478,25.9736184 15.4555057,25.4018842 15.4555057,24.6969177 L15.4555057,19.2318105 C15.4555057,18.526844 14.9062478,17.9551097 14.2289955,17.9551097 Z M29.7722472,17.9551097 C29.0949948,17.9551097 28.5444943,18.526844 28.5444943,19.2318105 L28.5444943,24.6969177 C28.5444943,25.4018842 29.0949948,25.9736184 29.7722472,25.9736184 C30.4494995,25.9736184 31,25.4018842 31,24.6969177 L31,19.2318105 C31,18.526844 30.4494995,17.9551097 29.7722472,17.9551097 Z" id="Shape" sketch:type="MSShapeGroup"></path>
      </g>
      <g id="googleplay" sketch:type="MSLayerGroup">

          <path d="M26.8355771,22.3820031 L16.1452182,32.6997109 L16.1319691,32.7125919 L15.8239277,33 C16.2950985,32.7351338 25.2398899,27.7219966 25.2398899,27.7219966 L29.7429241,25.1828228 L29.6013244,25.0580378 L26.8355771,22.3820031 Z M30.2960736,19.0546712 L30.2323123,19.1174662 L30.2190632,19.1174662 L30.1163828,19.2301753 L28.8038949,20.4933216 L27.4019756,21.84422 L27.3754775,21.857101 L27.3754775,21.8683719 L27.272797,21.956929 L30.1163828,24.7078347 L30.2190632,24.8205438 L30.2323123,24.8205438 L30.2960736,24.8825338 L34.6061679,22.4568742 C35.0773387,22.1920079 35.105493,21.8369744 34.7982797,21.5938449 C34.7767499,21.5761335 34.7469395,21.5600322 34.7212694,21.5439309 L34.6442591,21.4932118 C34.2186321,21.271014 30.7730408,19.3227577 30.2960736,19.0546712 L30.2960736,19.0546712 Z M15.1291786,11.099828 C15.0521683,11.2012661 15,11.3437626 15,11.5257072 L15,21.969005 L15,32.6127639 C15,32.725473 15.024842,32.8220807 15.0645893,32.8993669 L15.0778384,32.888096 L15.0902594,32.888096 L15.2318591,32.7375489 L26.3983571,21.956929 L26.3080977,21.8683719 L26.2956767,21.8683719 L26.2567575,21.84422 L15.2956203,11.2503751 L15.1805188,11.137666 L15.1283506,11.099828 L15.1291786,11.099828 Z M15.9009381,11 L16.119548,11.2004611 L16.1452182,11.2262231 L16.1576392,11.2262231 L26.8355771,21.5439309 L27.9675461,20.4554836 L29.6013244,18.8791671 L29.7429241,18.7543821 L25.2398899,16.2160135 L16.0168676,11.037838 C16.0044466,11.0305925 15.9903694,11.0313975 15.9779484,11.0257621 C15.9522783,11.012076 15.9257801,11.0112709 15.9009381,11 L15.9009381,11 Z" id="Shape" sketch:type="MSShapeGroup"></path>
      </g>
      <g id="windows" sketch:type="MSLayerGroup">

          <path d="M21.2553597,13.5681448 L21.2553597,21.4485688 L31,21.4485688 L31,12 L21.2553597,13.5681448 Z M21.2553597,30.4318552 L31,32 L31,22.5514312 L21.2553597,22.5514312 L21.2553597,30.4318552 Z M13,21.4485688 L20.2613149,21.4485688 L20.2613149,13.7269443 L13,14.8957084 L13,21.4485688 Z M13,29.1034976 L20.2613149,30.2722617 L20.2613149,22.5514312 L13,22.5514312 L13,29.1034976 Z" id="Shape" sketch:type="MSShapeGroup"></path>
      </g>
    </defs>
</svg>
