<?xml version="1.0" standalone="no"?>
<!DOCTYPE svg PUBLIC "-//W3C//DTD SVG 20010904//EN"
 "http://www.w3.org/TR/2001/REC-SVG-20010904/DTD/svg10.dtd">
<svg version="1.0" xmlns="http://www.w3.org/2000/svg"
 width="261.000000pt" height="261.000000pt" viewBox="0 0 261.000000 261.000000"
 preserveAspectRatio="xMidYMid meet">
<metadata>
Created by potrace 1.11, written by Peter Selinger 2001-2013
</metadata>
<g transform="translate(0.000000,261.000000) scale(0.100000,-0.100000)"
fill="#000000" stroke="none">
<path d="M679 2476 c-2 -2 -22 -7 -43 -10 -69 -11 -177 -54 -257 -102 -325
-197 -461 -575 -312 -869 33 -65 164 -253 210 -301 43 -45 49 -56 50 -98 2
-57 31 -124 70 -161 35 -34 99 -64 136 -65 21 0 27 -5 27 -21 0 -112 94 -216
210 -232 19 -3 26 -13 35 -48 29 -112 98 -177 204 -192 15 -2 25 -11 26 -23 7
-91 47 -157 122 -200 59 -35 155 -39 216 -10 55 27 254 231 279 287 20 43 25
46 75 57 29 6 71 24 93 39 41 29 84 100 96 159 5 29 10 32 50 37 82 9 147 74
173 172 10 37 14 40 46 42 44 2 107 37 135 75 26 35 50 101 50 137 0 16 26 70
62 126 77 125 121 221 148 318 85 310 -88 643 -419 807 -42 21 -96 43 -121 50
-25 6 -59 15 -77 20 -59 15 -233 4 -308 -20 -81 -25 -193 -81 -289 -145 l-68
-44 -71 48 c-128 87 -228 135 -327 157 -30 7 -215 15 -221 10z m245 -157 c64
-22 147 -68 229 -127 l49 -35 -227 -227 -227 -227 49 -40 c90 -75 124 -88 243
-88 l105 0 100 50 c86 42 114 63 204 152 58 57 106 103 107 103 6 0 670 -673
677 -686 13 -22 0 -77 -24 -102 -13 -15 -32 -22 -57 -22 -40 0 -57 16 -530
483 l-72 72 -48 -48 -47 -47 280 -279 c304 -303 296 -292 259 -363 -16 -30
-64 -45 -101 -31 -12 4 -84 67 -160 139 -76 72 -156 148 -178 168 -22 21 -65
61 -95 90 -30 29 -77 72 -103 96 l-49 44 -44 -49 -45 -50 88 -84 c48 -46 160
-151 248 -235 87 -83 176 -167 196 -186 31 -30 36 -41 33 -70 -5 -42 -31 -80
-68 -98 -35 -18 -60 -8 -84 32 -27 46 -78 83 -137 97 -28 7 -51 14 -52 14 -2
1 -5 21 -8 46 -13 98 -114 199 -200 199 -26 0 -39 14 -41 45 -5 73 -83 164
-161 186 -27 7 -52 14 -57 14 -5 0 -14 25 -21 56 -24 122 -108 192 -229 193
-86 0 -122 -21 -237 -136 l-98 -99 -32 33 c-48 50 -160 224 -188 293 -88 217
21 489 258 642 60 39 146 80 188 88 126 26 216 24 307 -6z m1081 0 c274 -82
486 -357 462 -597 -10 -100 -32 -167 -92 -277 -77 -142 -21 -175 -456 265
-210 212 -383 380 -386 374 -2 -6 -21 -35 -42 -63 -99 -133 -228 -246 -331
-290 -60 -26 -184 -38 -196 -20 -11 18 410 433 501 494 202 135 358 168 540
114z m-1226 -963 c28 -15 51 -53 51 -86 0 -37 -23 -68 -123 -167 -90 -87 -107
-99 -140 -101 -32 -2 -44 3 -73 32 -62 62 -49 99 85 234 90 91 105 102 137
102 19 0 47 -6 63 -14z m232 -251 c33 -18 57 -66 51 -106 -3 -18 -36 -60 -98
-123 -113 -114 -129 -126 -170 -126 -63 0 -117 76 -94 134 10 28 180 205 215
224 28 16 61 15 96 -3z m240 -240 c33 -18 57 -66 51 -106 -4 -29 -177 -216
-219 -238 -39 -20 -82 -13 -114 18 -16 16 -30 37 -30 45 -1 9 -2 22 -3 29 -4
26 12 48 96 135 136 140 154 150 219 117z m230 -251 c37 -18 63 -74 54 -114
-8 -34 -185 -216 -229 -235 -58 -25 -136 25 -136 88 0 44 22 75 117 169 110
109 137 122 194 92z"/>
</g>
</svg>
